<svg width="12" height="12" viewBox="0 0 12 12" fill="none" xmlns="http://www.w3.org/2000/svg">
<path id="Vector" d="M1.5 2.0625C1.5 1.51549 1.7173 0.990886 2.10409 0.604092C2.49089 0.217299 3.01549 3.55166e-08 3.5625 3.55166e-08C4.29975 3.55166e-08 4.96725 0.315 5.49 0.924C5.691 1.1625 5.86275 1.425 6 1.7055C6.13725 1.42425 6.30825 1.16175 6.51 0.9225C7.032 0.315 7.6995 3.55166e-08 8.4375 3.55166e-08C8.79053 -6.54724e-05 9.13768 0.0904886 9.44569 0.262994C9.75371 0.435499 10.0123 0.68418 10.1967 0.985231C10.3811 1.28628 10.4851 1.62963 10.4988 1.98239C10.5125 2.33516 10.4355 2.68554 10.275 3H10.6875C11.412 3 12 3.588 12 4.3125V5.8125C12 6.336 11.6932 6.78825 11.25 6.999V10.6875C11.25 11.0356 11.1117 11.3694 10.8656 11.6156C10.6194 11.8617 10.2856 12 9.9375 12H2.0625C1.7144 12 1.38056 11.8617 1.13442 11.6156C0.888281 11.3694 0.75 11.0356 0.75 10.6875V6.999C0.30675 6.7875 0 6.336 0 5.8125V4.3125C0 3.588 0.588 3 1.3125 3H1.725C1.581 2.71875 1.5 2.4 1.5 2.0625ZM5.4375 7.125H1.875V10.6875C1.875 10.791 1.959 10.875 2.0625 10.875H5.4375V7.125ZM6.5625 7.125V10.875H9.9375C9.98723 10.875 10.0349 10.8552 10.0701 10.8201C10.1052 10.7849 10.125 10.7372 10.125 10.6875V7.125H6.5625ZM6.5625 4.125V6H10.6875C10.7372 6 10.7849 5.98025 10.8201 5.94508C10.8552 5.90992 10.875 5.86223 10.875 5.8125V4.3125C10.875 4.26277 10.8552 4.21508 10.8201 4.17992C10.7849 4.14475 10.7372 4.125 10.6875 4.125H6.5625ZM1.3125 4.125C1.26277 4.125 1.21508 4.14475 1.17992 4.17992C1.14475 4.21508 1.125 4.26277 1.125 4.3125V5.8125C1.125 5.916 1.209 6 1.3125 6H5.4375V4.125H1.3125ZM3.5625 1.125C3.31386 1.125 3.0754 1.22377 2.89959 1.39959C2.72377 1.5754 2.625 1.81386 2.625 2.0625C2.625 2.31114 2.72377 2.5496 2.89959 2.72541C3.0754 2.90123 3.31386 3 3.5625 3H5.29425C5.1195 2.3865 4.88775 1.94925 4.63575 1.65525C4.31325 1.27875 3.9495 1.125 3.5625 1.125ZM6.70575 3H8.4375C8.68614 3 8.9246 2.90123 9.10041 2.72541C9.27623 2.5496 9.375 2.31114 9.375 2.0625C9.375 1.81386 9.27623 1.5754 9.10041 1.39959C8.9246 1.22377 8.68614 1.125 8.4375 1.125C8.0505 1.125 7.6875 1.27875 7.365 1.65525C7.11225 1.94925 6.8805 2.3865 6.70575 3Z" fill="#636C76"/>
</svg>
