<svg width="24" height="24" viewBox="0 0 24 24" fill="none" xmlns="http://www.w3.org/2000/svg">
<g id="google" clip-path="url(#clip0_84_1003)">
<g id="Color Vector">
<path d="M24.0003 12.276C24.0003 11.4603 23.9328 10.6402 23.7888 9.83774H12.242V14.4586H18.8543C18.58 15.9489 17.6983 17.2672 16.4073 18.105V21.1032H20.3522C22.6688 19.0133 24.0003 15.9268 24.0003 12.276Z" fill="#4285F4"/>
<path d="M12.2416 24C15.5432 24 18.3276 22.9374 20.3563 21.1032L16.4114 18.1049C15.3138 18.8369 13.8969 19.2513 12.2461 19.2513C9.05238 19.2513 6.34448 17.1393 5.37288 14.2998H1.30203V17.3906C3.38019 21.4427 7.61297 24 12.2416 24Z" fill="#34A853"/>
<path d="M5.36875 14.2998C4.85596 12.8095 4.85596 11.1957 5.36875 9.70542V6.61458H1.30241C-0.433887 10.0052 -0.43426 14 1.30203 17.3906L5.36875 14.2998Z" fill="#FBBC04"/>
<path d="M12.2416 4.7495C13.9869 4.72304 15.6737 5.36678 16.9377 6.54844L20.4327 3.12251C18.2196 1.08547 15.2823 -0.0344648 12.2416 0.000808638C7.61296 0.000808638 3.38056 2.55813 1.30241 6.61458L5.36875 9.70542C6.33586 6.8615 9.04788 4.7495 12.2416 4.7495Z" fill="#EA4335"/>
</g>
</g>
<defs>
<clipPath id="clip0_84_1003">
<rect width="24" height="24" fill="white"/>
</clipPath>
</defs>
</svg>
