<svg width="100" height="22" viewBox="0 0 100 22" fill="none" xmlns="http://www.w3.org/2000/svg">
<g id="3D-red 1" clip-path="url(#clip0_1_304)">
<path id="Vector" d="M75.9531 1.73242V20.3207H79.6201V12.5218H82.7963V20.3207H86.4446V1.73242H82.7989V9.13781H79.6175V1.73242H75.9531Z" fill="#E31230"/>
<path id="Vector_2" d="M47.6719 1.73242V20.3207H51.0295V8.50316L53.002 20.3207H55.2359L57.2405 8.50316V20.3207H60.6087V1.73242H55.6151L54.1388 10.6677L52.6659 1.73242H47.6719Z" fill="#E31230"/>
<path id="Vector_3" d="M26.5951 1.73242L28.829 10.0358L31.0603 1.73242H34.7061L30.7747 14.2207V20.3207H26.8807V14.2207L22.9492 1.73242H26.5951Z" fill="#E31230"/>
<path id="Vector_4" d="M42.449 1.72852H37.5969L34.4102 20.3196H38.0346L38.6459 15.8852H41.3976L42.0088 20.3196H45.6414L42.449 1.72852ZM40.015 5.93007L40.9198 12.5207H39.1102L40.015 5.93007Z" fill="#E31230"/>
<path id="Vector_5" d="M70.703 1.72852H65.8509L62.6641 20.3196H66.2886L66.9001 15.8852H69.6382L70.2497 20.3196H73.8954L70.703 1.72852ZM68.2691 5.93007L69.1738 12.5207H67.3645L68.2691 5.93007Z" fill="#E31230"/>
<path id="Vector_6" d="M96.5521 1.72852H91.7025L88.5156 20.3196H92.1402L92.7487 15.8852H95.4898L96.0983 20.3196H99.7444L96.5521 1.72852ZM94.1182 5.93007L95.0254 12.5207H93.2131L94.1182 5.93007Z" fill="#E31230"/>
<path id="Vector_7" d="M3.36302e-07 11.0028C-0.000527475 8.82719 0.620237 6.70028 1.7838 4.89104C2.94736 3.08179 4.60144 1.67146 6.53691 0.838389C8.47237 0.00532063 10.6022 -0.213073 12.6572 0.210826C14.7122 0.634726 16.6 1.68188 18.0819 3.21987C19.5637 4.75785 20.5731 6.71761 20.9824 8.8513C21.3916 10.985 21.1824 13.1967 20.3811 15.207C19.5798 17.2172 18.2225 18.9355 16.4807 20.1446C14.7389 21.3538 12.691 21.9995 10.5959 22C9.20475 22.0004 7.8272 21.7162 6.54182 21.1637C5.25648 20.6113 4.08849 19.8013 3.10457 18.7801C2.12065 17.7589 1.34006 16.5465 0.807381 15.2121C0.2747 13.8776 0.000350789 12.4473 3.36302e-07 11.0028Z" fill="url(#paint0_radial_1_304)"/>
<path id="Vector_8" d="M10.5954 0.837891C8.58535 0.837345 6.62027 1.45657 4.94866 2.61726C3.27707 3.77794 1.97403 5.42797 1.20433 7.35869C0.434625 9.28937 0.232826 11.414 0.624452 13.464C1.01608 15.514 1.98354 17.3971 3.40449 18.8754C4.82543 20.3536 6.63607 21.3605 8.60738 21.7688C10.5787 22.1771 12.6223 21.9684 14.4795 21.1691C16.3367 20.3698 17.9243 19.0158 19.0415 17.2783C20.1587 15.5408 20.7552 13.4979 20.7558 11.4079C20.7561 10.0202 20.4936 8.646 19.9832 7.3638C19.4728 6.08159 18.7245 4.91647 17.781 3.93493C16.8375 2.95342 15.7173 2.17473 14.4844 1.64334C13.2515 1.11195 11.93 0.838256 10.5954 0.837891ZM19.0086 16.6943L17.5922 16.3698C16.8152 17.5551 15.7715 18.525 14.5519 19.1953C13.3322 19.8656 11.9736 20.216 10.5941 20.216C9.21454 20.216 7.8559 19.8656 6.63628 19.1953C5.41666 18.525 4.37298 17.5551 3.59597 16.3698L2.18221 16.6943C2.12678 16.7014 2.07086 16.6857 2.02648 16.6504C1.98209 16.6151 1.95277 16.5632 1.94481 16.5057C1.93884 16.4497 1.9531 16.3933 1.98482 16.3476L2.96378 15.2382C2.36472 13.9453 2.07843 12.5199 2.12978 11.0858C2.18113 9.65171 2.56857 8.25233 3.25843 7.00938C3.9483 5.76642 4.91967 4.71742 6.08819 3.95366C7.25666 3.18988 8.58688 2.73441 9.96319 2.62684L10.4113 1.19013C10.4276 1.15049 10.4548 1.11671 10.4894 1.09303C10.524 1.06935 10.5646 1.05682 10.6061 1.057C10.6472 1.05663 10.6876 1.06912 10.7218 1.09286C10.756 1.1166 10.7826 1.15049 10.7981 1.19013L11.2356 2.62684C12.6108 2.73517 13.9398 3.19107 15.107 3.95491C16.2742 4.71878 17.2444 5.76743 17.9331 7.00982C18.6219 8.2522 19.0085 9.65065 19.0592 11.0837C19.11 12.5167 18.8234 13.941 18.2243 15.2327L19.2033 16.3421C19.2268 16.3771 19.2405 16.4182 19.2429 16.4608C19.2452 16.5034 19.2362 16.5458 19.2166 16.5834C19.1966 16.6214 19.1661 16.6523 19.129 16.6721C19.0919 16.6919 19.05 16.6996 19.0086 16.6943Z" fill="#56262B"/>
<path id="Vector_9" d="M19.0107 16.3934L16.876 14.0264C16.7462 14.0837 16.6068 14.1137 16.4658 14.1147C16.3249 14.1158 16.1851 14.0878 16.0546 14.0324C15.9241 13.977 15.8054 13.8953 15.7055 13.792C15.6056 13.6886 15.5263 13.5658 15.4724 13.4305C15.436 13.3419 15.4109 13.2487 15.3977 13.1534C15.3704 12.9 15.2864 12.6568 15.1525 12.4431C15.0186 12.2295 14.8385 12.0513 14.6265 11.9228L13.7646 11.3989L17.6071 9.09297L17.1882 8.31967L12.9187 10.8807L12.1769 10.4344V9.55581L16.4463 6.99483L16.0221 6.23267L12.1742 8.53862V7.50761C12.1737 7.25061 12.1159 6.99721 12.0052 6.76735C11.8946 6.5375 11.7341 6.33739 11.5365 6.18277C11.425 6.09437 11.3314 5.98402 11.261 5.85801C11.1905 5.73199 11.1447 5.59282 11.1262 5.44841C11.1076 5.304 11.1166 5.15722 11.1527 5.01642C11.1887 4.87562 11.2511 4.74362 11.3363 4.6279C11.3941 4.54989 11.4614 4.48001 11.5365 4.42L10.6372 1.32412C10.6338 1.3129 10.6271 1.3031 10.618 1.29612C10.6089 1.28915 10.5979 1.28536 10.5866 1.28532C10.575 1.28436 10.5635 1.28775 10.5542 1.29489C10.5449 1.30201 10.5384 1.31239 10.5358 1.32412L9.62859 4.42277C9.74007 4.51117 9.83371 4.62152 9.90414 4.74753C9.97452 4.87355 10.0203 5.01272 10.0389 5.15713C10.0575 5.30154 10.0485 5.44832 10.0124 5.58912C9.97638 5.72992 9.91392 5.86197 9.82871 5.97764C9.77096 6.05566 9.70367 6.12553 9.62859 6.18554C9.43096 6.34016 9.27049 6.54027 9.15986 6.77013C9.04922 6.99998 8.99134 7.25338 8.99083 7.51038V8.54139L5.14833 6.23267L4.72405 6.99483L8.9935 9.55858V10.4455L8.2677 10.8917L3.99825 8.31967L3.57398 9.08189L7.41914 11.3878L6.54392 11.9228C6.32943 12.0501 6.14689 12.2281 6.01104 12.4424C5.8752 12.6567 5.7899 12.9012 5.76206 13.1562C5.74397 13.3007 5.69863 13.4401 5.62859 13.5665C5.55854 13.6928 5.46524 13.8035 5.35392 13.8924C5.24265 13.9812 5.11558 14.0463 4.98003 14.0841C4.84448 14.1218 4.70308 14.1314 4.56397 14.1124C4.47219 14.0984 4.38253 14.0724 4.2971 14.0347L2.16239 16.399C2.15585 16.4087 2.15234 16.4203 2.15234 16.4322C2.15234 16.4441 2.15585 16.4557 2.16239 16.4654C2.16832 16.4756 2.17723 16.4835 2.18779 16.488C2.19836 16.4925 2.21003 16.4933 2.2211 16.4904L5.2524 15.7587C5.28833 15.4673 5.43414 15.2027 5.65778 15.0229C5.88142 14.8431 6.1646 14.7628 6.4452 14.7997C6.5371 14.8113 6.62698 14.8365 6.71202 14.8745C6.9396 14.9748 7.18642 15.019 7.43316 15.0036C7.67994 14.9882 7.9199 14.9137 8.13426 14.7859L8.99617 14.2703V18.874H9.84473V13.7493L10.5839 13.3086L11.3257 13.752V18.874H12.1742V14.2592L13.0361 14.7748C13.2505 14.9026 13.4905 14.9771 13.7372 14.9925C13.984 15.0079 14.2308 14.9637 14.4584 14.8635C14.611 14.7954 14.7769 14.7653 14.9427 14.7756C15.1086 14.7859 15.2699 14.8362 15.4137 14.9226C15.5574 15.009 15.6799 15.1291 15.7711 15.2733C15.8624 15.4174 15.92 15.5818 15.9393 15.7532L18.9733 16.4848C18.9844 16.4878 18.9961 16.4869 19.0066 16.4824C19.0172 16.4779 19.0261 16.4701 19.032 16.4599C19.0376 16.4481 19.0385 16.4346 19.0345 16.4221C19.0305 16.4096 19.0219 16.3994 19.0107 16.3934ZM10.5839 12.2887L9.84473 11.8452V10.9555L10.5839 10.5092L11.3257 10.9555V11.8424L10.5839 12.2887ZM9.84473 7.50761C9.83808 7.4061 9.85087 7.30424 9.88231 7.20788C9.9138 7.11157 9.96329 7.02264 10.028 6.94626C10.0927 6.86992 10.1713 6.80761 10.2593 6.763C10.3474 6.71834 10.443 6.69225 10.5408 6.68622C10.6386 6.68019 10.7365 6.69431 10.829 6.7278C10.9215 6.76128 11.0067 6.81347 11.0796 6.88131C11.1526 6.94921 11.2119 7.0314 11.2542 7.12318C11.2964 7.21497 11.3207 7.31454 11.3257 7.41614C11.3284 7.44654 11.3284 7.47716 11.3257 7.50761V9.04862L10.5839 9.49205L9.84473 9.04862V7.50761ZM7.70998 14.0126C7.54041 14.1052 7.34286 14.1261 7.1588 14.0709C6.97469 14.0156 6.81833 13.8885 6.72244 13.7162C6.62655 13.5439 6.59859 13.3397 6.64439 13.1464C6.6902 12.9532 6.80621 12.7858 6.9682 12.6794L8.2677 11.9228L9.00952 12.3662V13.2559L7.70998 14.0126ZM14.4717 13.7354C14.4229 13.8226 14.358 13.899 14.2807 13.9601C14.2034 14.0213 14.1153 14.066 14.0214 14.0917C13.9274 14.1175 13.8296 14.1237 13.7333 14.1102C13.6371 14.0966 13.5443 14.0634 13.4604 14.0126L12.1742 13.2421V12.3524L12.916 11.9228L14.2022 12.6933C14.3688 12.7951 14.49 12.9609 14.5399 13.1548C14.5899 13.3487 14.5644 13.5553 14.4691 13.7299L14.4717 13.7354Z" fill="#56262B"/>
<path id="Vector_10" d="M10.5954 0.669922C8.58535 0.669372 6.62027 1.28778 4.94866 2.44693C3.27707 3.60609 1.97403 5.25393 1.20433 7.18209C0.434625 9.11026 0.232826 11.2321 0.624452 13.2794C1.01608 15.3266 1.98354 17.2073 3.40449 18.6836C4.82543 20.1599 6.63607 21.1655 8.60738 21.5732C10.5787 21.9809 12.6223 21.7725 14.4795 20.9742C16.3367 20.176 17.9243 18.8238 19.0415 17.0886C20.1587 15.3534 20.7552 13.3132 20.7558 11.226C20.7561 9.84009 20.4936 8.46773 19.9832 7.1872C19.4728 5.90667 18.7245 4.74309 17.781 3.76287C16.8375 2.78265 15.7173 2.00499 14.4844 1.4743C13.2515 0.943616 11.93 0.670283 10.5954 0.669922ZM19.0086 16.5027L17.5922 16.1758C16.8152 17.3595 15.7715 18.3281 14.5519 18.9975C13.3322 19.667 11.9736 20.0169 10.5941 20.0169C9.21454 20.0169 7.8559 19.667 6.63628 18.9975C5.41666 18.3281 4.37298 17.3595 3.59597 16.1758L2.18221 16.4999C2.14073 16.5057 2.09853 16.4984 2.061 16.4792C2.02347 16.4599 1.99231 16.4295 1.97149 16.3918C1.94941 16.3558 1.93768 16.314 1.93768 16.2714C1.93768 16.2287 1.94941 16.1869 1.97149 16.1509L2.95044 15.0429C2.35225 13.7509 2.06706 12.3268 2.11967 10.8943C2.17229 9.46187 2.56112 8.06443 3.25235 6.82354C3.94357 5.58265 4.91628 4.53593 6.08586 3.77435C7.25543 3.01278 8.58645 2.55943 9.96319 2.45373L10.4113 1.01893C10.4276 0.979335 10.4548 0.945604 10.4894 0.921954C10.524 0.898304 10.5646 0.885791 10.6061 0.885971C10.6468 0.885742 10.6868 0.897957 10.7209 0.921105C10.7551 0.944249 10.7819 0.977302 10.7981 1.01616L11.2356 2.45373C12.6108 2.56192 13.9398 3.01722 15.107 3.78005C16.2742 4.54289 17.2444 5.59017 17.9331 6.83093C18.6219 8.07164 19.0085 9.46829 19.0592 10.8994C19.11 12.3306 18.8234 13.7529 18.2243 15.0429L19.2033 16.1509C19.2279 16.1855 19.2422 16.2268 19.2446 16.2698C19.2469 16.3127 19.2372 16.3555 19.2165 16.3927C19.1959 16.4301 19.1652 16.4603 19.1283 16.4798C19.0914 16.4993 19.0498 16.5073 19.0086 16.5027Z" fill="#230000"/>
<path id="Vector_11" d="M19.0155 16.2235L16.882 13.8574C16.7523 13.9148 16.613 13.9448 16.4721 13.9458C16.3312 13.9469 16.1915 13.9188 16.061 13.8634C15.9306 13.8079 15.812 13.7262 15.7122 13.6228C15.6123 13.5194 15.5331 13.3965 15.4792 13.2611C15.4428 13.1724 15.4177 13.0792 15.4045 12.9837C15.3767 12.7286 15.2914 12.4839 15.1556 12.2694C15.0199 12.0549 14.8374 11.8768 14.6231 11.7494L13.7723 11.2279L17.6127 8.92016L17.1887 8.15461L12.9215 10.7203L12.1828 10.271V9.3834L16.4499 6.8204L16.0259 6.05761L12.1828 8.36541V7.33357C12.1823 7.07634 12.1245 6.82277 12.0139 6.59274C11.9033 6.36271 11.7429 6.16246 11.5454 6.00772C11.4332 5.91919 11.3389 5.80844 11.2681 5.6819C11.1973 5.55531 11.1512 5.41539 11.1326 5.27023C11.114 5.12503 11.1233 4.97746 11.1598 4.836C11.1963 4.69458 11.2594 4.56205 11.3454 4.44607C11.4031 4.36801 11.4703 4.29808 11.5454 4.23803L10.6466 1.14528C10.6419 1.13588 10.6345 1.1282 10.6254 1.12325C10.6164 1.1183 10.6061 1.11631 10.596 1.11754C10.5844 1.11658 10.573 1.11998 10.5636 1.12712C10.5543 1.13425 10.5478 1.14464 10.5453 1.15637L9.63852 4.24636C9.74996 4.33482 9.84352 4.44528 9.9139 4.57138C9.98429 4.69748 10.03 4.83674 10.0486 4.98128C10.0672 5.12578 10.0582 5.2727 10.0222 5.41363C9.98611 5.55452 9.92373 5.68665 9.83856 5.80246C9.78081 5.88051 9.71356 5.95043 9.63852 6.01049C9.44098 6.16524 9.28064 6.36548 9.17005 6.59551C9.05945 6.82554 9.00166 7.07912 9.00111 7.33634V8.37096L5.16073 6.05761L4.73666 6.8204L9.00378 9.38617V10.271L8.2784 10.7203L4.01126 8.15461L3.58721 8.92016L7.4303 11.2279L6.56886 11.7439C6.35488 11.8724 6.17276 12.0512 6.03708 12.266C5.9014 12.4808 5.8159 12.7256 5.78746 12.981C5.76937 13.1256 5.72403 13.2652 5.65403 13.3916C5.58403 13.518 5.49077 13.6288 5.37954 13.7177C5.26831 13.8066 5.14132 13.8718 5.00585 13.9096C4.87034 13.9474 4.72903 13.957 4.59001 13.9379C4.49827 13.924 4.40865 13.8979 4.32331 13.8602L2.18973 16.2263C2.18319 16.236 2.17969 16.2477 2.17969 16.2595C2.17969 16.2715 2.18319 16.2831 2.18973 16.2928C2.19566 16.303 2.20456 16.3109 2.21512 16.3154C2.22567 16.3199 2.23734 16.3207 2.2484 16.3178L5.2834 15.5855C5.32306 15.2942 5.47229 15.0312 5.69835 14.8544C5.92441 14.6775 6.20878 14.6013 6.48886 14.6425C6.57221 14.6535 6.65382 14.6759 6.73153 14.709C6.95844 14.8113 7.20526 14.8567 7.45212 14.8418C7.69899 14.8269 7.93907 14.752 8.15301 14.623L9.01445 14.1071V18.706H9.86255V13.5801L10.6013 13.1363L11.3427 13.5801V18.706H12.1908V14.0905L13.0522 14.6064C13.2645 14.7352 13.5023 14.8115 13.7475 14.8293C13.9925 14.8471 14.2384 14.8059 14.4657 14.709C14.7267 14.5959 15.0203 14.5951 15.2818 14.7069C15.5434 14.8188 15.7515 15.034 15.8605 15.3054C15.8966 15.3941 15.9217 15.4874 15.9352 15.5827L18.9675 16.315C18.98 16.3184 18.9932 16.3171 19.005 16.3115C19.0167 16.3058 19.0261 16.2961 19.0318 16.2841C19.0374 16.272 19.0389 16.2583 19.0359 16.2452C19.033 16.2322 19.0258 16.2206 19.0155 16.2124V16.2235ZM10.5933 12.1183L9.85454 11.6745V10.7841L10.5933 10.3375L11.3347 10.7841V11.6717L10.5933 12.1183ZM9.85454 7.33357C9.84793 7.23197 9.86068 7.13007 9.89212 7.03362C9.92356 6.93722 9.97306 6.84825 10.0377 6.77182C10.1024 6.69539 10.181 6.63304 10.2689 6.58838C10.3569 6.54372 10.4525 6.51759 10.5503 6.51156C10.648 6.50549 10.7459 6.51966 10.8383 6.55318C10.9307 6.58667 11.0159 6.6389 11.0888 6.70679C11.1617 6.77472 11.221 6.85696 11.2632 6.94883C11.3054 7.0407 11.3297 7.14036 11.3347 7.24205C11.3374 7.2725 11.3374 7.30312 11.3347 7.33357V8.88408L10.5933 9.32791L9.85454 8.88408V7.33357ZM7.72098 13.8436C7.55149 13.9363 7.35407 13.9572 7.17005 13.9019C6.98606 13.8466 6.82979 13.7195 6.73395 13.547C6.6381 13.3745 6.61017 13.1702 6.65594 12.9768C6.70174 12.7834 6.81772 12.6159 6.97958 12.5094L8.2784 11.7383L9.01979 12.1821V13.0725L7.72098 13.8436ZM14.479 13.5662C14.4302 13.6535 14.3653 13.7299 14.2881 13.7911C14.2109 13.8523 14.1228 13.897 14.0289 13.9228C13.935 13.9486 13.8372 13.9548 13.741 13.9413C13.6448 13.9277 13.5521 13.8945 13.4683 13.8436L12.1828 13.0725V12.1821L12.9242 11.7383L14.2097 12.5094C14.3783 12.6114 14.501 12.7788 14.5511 12.9749C14.6011 13.171 14.5742 13.3797 14.4764 13.5551L14.479 13.5662Z" fill="#230000"/>
<path id="Vector_12" d="M19.0242 16.0007L16.8884 13.6364C16.7583 13.6935 16.6185 13.7233 16.4772 13.7239C16.3359 13.7245 16.1959 13.6961 16.0653 13.6401C15.9347 13.5842 15.816 13.5019 15.7163 13.398C15.6166 13.2941 15.5376 13.1707 15.4841 13.0349C15.4496 12.9458 15.4254 12.8528 15.4121 12.7577C15.3836 12.5026 15.298 12.258 15.1622 12.0433C15.0263 11.8287 14.844 11.65 14.6298 11.5216L13.7755 11.0088L17.6199 8.69992L17.1955 7.93767L12.9238 10.4988L12.1816 10.0553V9.15449L16.4532 6.59338L16.0341 5.8284L12.1843 8.14834V7.11447C12.1849 6.85769 12.1274 6.60429 12.0166 6.3747C11.9058 6.14511 11.7447 5.94566 11.5463 5.79236C11.4347 5.70397 11.341 5.59357 11.2706 5.4676C11.2001 5.34158 11.1543 5.20237 11.1357 5.05796C11.1171 4.91355 11.1261 4.76677 11.1622 4.62597C11.1983 4.48517 11.2607 4.35312 11.346 4.2374C11.4038 4.1594 11.4711 4.08952 11.5463 4.02952L10.6466 0.930704C10.643 0.919616 10.6362 0.909958 10.6271 0.903112C10.618 0.896265 10.6071 0.892578 10.5958 0.892578C10.5846 0.892578 10.5736 0.896265 10.5645 0.903112C10.5554 0.909958 10.5486 0.919616 10.5451 0.930704L9.63736 4.02952C9.74892 4.11792 9.84261 4.22828 9.91303 4.3543C9.9835 4.48033 10.0293 4.6195 10.0479 4.76391C10.0665 4.90831 10.0575 5.05514 10.0214 5.19594C9.98532 5.3367 9.92286 5.46874 9.83761 5.58446C9.77981 5.66247 9.71248 5.73235 9.63736 5.79236C9.43892 5.94566 9.27782 6.14511 9.16702 6.3747C9.05621 6.60429 8.99875 6.85769 8.99931 7.11447V8.14834L5.15486 5.8284L4.73037 6.60447L9.00198 9.16558V10.0525L8.27579 10.4988L4.00419 7.93767L3.5797 8.69992L7.42681 11.006L6.56448 11.5243C6.34685 11.6499 6.16083 11.827 6.02164 12.0414C5.88248 12.2557 5.79405 12.5012 5.76354 12.7577C5.74545 12.9023 5.70007 13.0418 5.62998 13.1681C5.55994 13.2944 5.46655 13.4052 5.3552 13.494C5.24388 13.5828 5.11676 13.6479 4.98113 13.6857C4.84549 13.7234 4.70405 13.7331 4.56481 13.714C4.47303 13.7001 4.38329 13.674 4.29786 13.6364L2.16206 16.0035C2.15573 16.0128 2.15234 16.0239 2.15234 16.0353C2.15234 16.0467 2.15573 16.0579 2.16206 16.0672C2.16842 16.0751 2.17686 16.0809 2.18635 16.0838C2.19584 16.0868 2.20596 16.0868 2.21545 16.0839L5.25363 15.3521C5.2896 15.0607 5.43545 14.7961 5.65922 14.6163C5.88295 14.4365 6.1663 14.3562 6.44702 14.3931C6.53897 14.4047 6.62888 14.4299 6.71397 14.4679C6.94147 14.5686 7.18833 14.6133 7.4352 14.5983C7.68206 14.5834 7.92227 14.5094 8.13698 14.382L9.00464 13.8664V18.4814H9.85363V13.3564L10.5931 12.913L11.3353 13.3592V18.4814H12.1843V13.8664L13.0466 14.3848C13.2613 14.5121 13.5016 14.5862 13.7484 14.6011C13.9953 14.616 14.2421 14.5714 14.4696 14.4707C14.7309 14.3576 15.0248 14.3568 15.2866 14.4686C15.5484 14.5803 15.7568 14.7954 15.8659 15.0666C15.902 15.1553 15.9271 15.2485 15.9407 15.3438L18.9735 16.0839C18.9849 16.0865 18.9968 16.0852 19.0074 16.0803C19.018 16.0752 19.0267 16.0668 19.0322 16.0562C19.0364 16.0471 19.0379 16.037 19.0364 16.0272C19.035 16.0173 19.0307 16.0081 19.0242 16.0007ZM10.5931 11.8957L9.85363 11.4523V10.5625L10.5931 10.1191L11.3353 10.5625V11.4523L10.5931 11.8957ZM9.85363 7.11447C9.84698 7.01297 9.85977 6.91111 9.89125 6.81475C9.9227 6.71843 9.97223 6.62951 10.037 6.55312C10.1018 6.47678 10.1804 6.41448 10.2685 6.36982C10.3565 6.3252 10.4522 6.29911 10.5501 6.29308C10.6479 6.28701 10.7459 6.30118 10.8384 6.33466C10.931 6.36815 11.0162 6.42033 11.0892 6.48818C11.1622 6.55603 11.2215 6.63826 11.2638 6.73005C11.306 6.82183 11.3303 6.9214 11.3353 7.023C11.338 7.05345 11.338 7.08407 11.3353 7.11447V8.65557L10.5931 9.10182L9.85363 8.65557V7.11447ZM7.71782 13.6198C7.54812 13.7124 7.35049 13.7333 7.1663 13.678C6.98214 13.6228 6.82566 13.4957 6.72973 13.3234C6.6338 13.1511 6.60583 12.9468 6.65164 12.7536C6.69748 12.5603 6.81359 12.3929 6.97562 12.2865L8.27579 11.516L9.01799 11.9623V12.8492L7.71782 13.6198ZM14.483 13.3426C14.3848 13.5178 14.2237 13.6454 14.0349 13.6974C13.8463 13.7493 13.6454 13.7214 13.4765 13.6198L12.1896 12.8492V11.9595L12.9318 11.516L14.2187 12.2865C14.3885 12.3895 14.5121 12.5583 14.5621 12.7558C14.6121 12.9533 14.5846 13.1634 14.4857 13.3398L14.483 13.3426Z" fill="url(#paint1_radial_1_304)"/>
<path id="Vector_13" d="M10.5922 9.15682V9.09641L9.86237 8.6543L9.8125 8.68453L10.5922 9.15682Z" fill="#EBEBEB"/>
<path id="Vector_14" d="M10.5917 6.36317V6.31055C10.3778 6.31055 10.1727 6.39806 10.0214 6.55387C9.87011 6.70967 9.78516 6.921 9.78516 7.14136V8.71154L9.83622 8.68109V7.13304C9.83588 7.03184 9.85499 6.93156 9.8924 6.83797C9.92986 6.74439 9.9849 6.65938 10.0544 6.58783C10.1238 6.51625 10.2064 6.45957 10.2972 6.42099C10.3881 6.38244 10.4854 6.36277 10.5837 6.36317H10.5917Z" fill="url(#paint2_linear_1_304)"/>
<path id="Vector_15" d="M10.5922 10.0508L9.8125 10.5229L9.86237 10.5533L10.5922 10.1115V10.0508Z" fill="#1A1A1A"/>
<path id="Vector_16" d="M10.5929 0.948317V0.892578C10.5814 0.892627 10.5703 0.896433 10.5611 0.903446C10.5518 0.91046 10.545 0.92032 10.5416 0.931597L9.625 4.0474L9.68449 4.02789L10.5929 0.948317Z" fill="white"/>
<path id="Vector_17" d="M9.06049 8.23528V7.11512C9.05905 6.86644 9.11366 6.62087 9.21989 6.39845C9.32612 6.17599 9.48095 5.98296 9.67184 5.83495C9.78727 5.74448 9.88451 5.631 9.9579 5.50107C10.0313 5.37114 10.0794 5.22726 10.0995 5.07775C10.1196 4.92828 10.1112 4.77608 10.0749 4.63C10.0386 4.48388 9.97506 4.34675 9.88794 4.22646C9.83273 4.14896 9.76807 4.07939 9.69557 4.01953L9.63761 4.03885C9.74769 4.12684 9.84015 4.23669 9.90968 4.36212C9.97922 4.48758 10.0245 4.62609 10.0428 4.76984C10.0612 4.91359 10.0523 5.05971 10.0167 5.19989C9.98104 5.34003 9.91938 5.47146 9.83523 5.58665C9.7782 5.66427 9.71176 5.73383 9.63761 5.79358C9.44172 5.94618 9.28273 6.14471 9.17337 6.37324C9.06396 6.60178 9.00727 6.85399 9.00782 7.10958V8.1387L9.06049 8.23528Z" fill="url(#paint3_linear_1_304)"/>
<path id="Vector_18" d="M4.73047 6.60721L9.00839 9.15644L9.05915 9.12608L4.79992 6.58789L4.73047 6.60721Z" fill="#808080"/>
<path id="Vector_19" d="M9.00781 10.0476L9.0611 10.0782V9.12891L9.00781 9.15944V10.0476Z" fill="#F2F2F2"/>
<path id="Vector_20" d="M4.79784 6.59775L5.16064 5.90981L5.1425 5.83594L4.73047 6.61764L4.79784 6.59775Z" fill="white"/>
<path id="Vector_21" d="M9.0119 8.14532L5.16406 5.83594L5.18275 5.9081L9.06258 8.23693L9.0119 8.14532Z" fill="#EBEBEB"/>
<path id="Vector_22" d="M10.5938 9.15682V9.09641L11.3234 8.6543L11.3735 8.68453L10.5938 9.15682Z" fill="#F2F2F2"/>
<path id="Vector_23" d="M10.5938 6.36317V6.31055C10.8077 6.31055 11.0128 6.39806 11.1641 6.55387C11.3154 6.70967 11.4004 6.921 11.4004 7.14136V8.71154L11.3493 8.68109V7.13304C11.3496 7.03184 11.3305 6.93156 11.2931 6.83797C11.2557 6.74439 11.2006 6.65938 11.1311 6.58783C11.0616 6.51625 10.9791 6.45957 10.8883 6.42099C10.7974 6.38244 10.7001 6.36277 10.6018 6.36317H10.5938Z" fill="url(#paint4_linear_1_304)"/>
<path id="Vector_24" d="M10.5938 10.0508L11.3735 10.5229L11.3236 10.5533L10.5938 10.1115V10.0508Z" fill="#808080"/>
<path id="Vector_25" d="M10.5938 0.945532V0.892578C10.6052 0.892627 10.6164 0.896433 10.6256 0.903446C10.6349 0.91046 10.6417 0.92032 10.6451 0.931597L11.5617 4.0474L11.5022 4.02789L10.5938 0.945532Z" fill="#F2F2F2"/>
<path id="Vector_26" d="M12.125 8.23528V7.11438C12.1262 6.86587 12.0716 6.62057 11.9657 6.3981C11.8598 6.17564 11.7055 5.98221 11.5153 5.83336C11.2834 5.65063 11.1302 5.37924 11.0891 5.07867C11.0481 4.77806 11.1225 4.4727 11.2962 4.22935C11.3523 4.15084 11.418 4.08031 11.4915 4.01953L11.5496 4.03886C11.4393 4.12691 11.3466 4.23683 11.277 4.36235C11.2074 4.48784 11.162 4.62648 11.1437 4.77036C11.1253 4.9142 11.1342 5.06041 11.1699 5.20064C11.2055 5.34091 11.2673 5.47239 11.3516 5.58767C11.4088 5.66537 11.4753 5.73498 11.5496 5.79473C11.7458 5.94741 11.9051 6.14607 12.0146 6.37478C12.1242 6.60349 12.181 6.85583 12.1805 7.11161V8.14138L12.125 8.23528Z" fill="url(#paint5_linear_1_304)"/>
<path id="Vector_27" d="M16.4537 6.60721L12.1758 9.15644L12.125 9.12608L16.3842 6.58789L16.4537 6.60721Z" fill="#1A1A1A"/>
<path id="Vector_28" d="M12.1782 10.0477L12.125 10.0782V9.12891L12.1782 9.15935V10.0477Z" fill="#4D4D4D"/>
<path id="Vector_29" d="M16.3862 6.59784L16.0234 5.90955L16.0416 5.83594L16.4536 6.61764L16.3862 6.59784Z" fill="#B3B3B3"/>
<path id="Vector_30" d="M12.1757 8.14545L16.0235 5.83594L16.0048 5.90801L12.125 8.23693L12.1757 8.14545Z" fill="#F2F2F2"/>
<path id="Vector_31" d="M9.0611 11.9219L9.00781 11.9524V12.8406L9.0611 12.8711V11.9219Z" fill="#F2F2F2"/>
<path id="Vector_32" d="M6.71339 13.3306L6.66797 13.3583C6.77496 13.5441 6.94797 13.6794 7.15005 13.7351C7.35216 13.7909 7.56733 13.7627 7.74958 13.6565L9.06085 12.8722L9.01013 12.8418L7.72288 13.6123C7.55271 13.7126 7.35115 13.7392 7.16204 13.6864C6.97297 13.6337 6.8117 13.5058 6.71339 13.3306Z" fill="url(#paint6_linear_1_304)"/>
<path id="Vector_33" d="M9.8125 11.4776L10.5922 11.9498V11.8918L9.86237 11.4473L9.8125 11.4776Z" fill="#EBEBEB"/>
<path id="Vector_34" d="M2.19766 16.0302L2.15234 16.058C2.15871 16.0675 2.16791 16.0745 2.1785 16.0781C2.1891 16.0816 2.20052 16.0814 2.21098 16.0775L5.24426 15.3405L5.1963 15.2988L2.19766 16.0302Z" fill="url(#paint7_linear_1_304)"/>
<path id="Vector_35" d="M9.05959 13.7637L8.12048 14.323C7.91273 14.4489 7.67972 14.5223 7.44001 14.5374C7.20031 14.5524 6.96056 14.5087 6.73989 14.4098C6.5815 14.3391 6.40951 14.3081 6.23764 14.3193C6.06573 14.3304 5.89874 14.3835 5.74993 14.4741C5.60688 14.5638 5.48463 14.6856 5.39209 14.8307C5.29959 14.9758 5.23904 15.1406 5.21484 15.3131L5.26298 15.3551C5.29904 15.0611 5.44523 14.794 5.66946 14.6126C5.8937 14.4312 6.17764 14.3501 6.45895 14.3874C6.55112 14.3991 6.64124 14.4245 6.7265 14.4629C6.95451 14.5645 7.20188 14.6095 7.44929 14.5945C7.69667 14.5794 7.93739 14.5047 8.15256 14.3762L9.00874 13.8588L9.05959 13.7637Z" fill="url(#paint8_linear_1_304)"/>
<path id="Vector_36" d="M9.8435 18.4814V13.347L9.8125 13.3164V18.4286L9.8435 18.4814Z" fill="#4D4D4D"/>
<path id="Vector_37" d="M10.5922 12.9059V12.8418L9.8125 13.3402L9.86237 13.3723L10.5922 12.9059Z" fill="#1A1A1A"/>
<path id="Vector_38" d="M9.7915 18.4258H9.05764L9.00781 18.4816H9.84133L9.7915 18.4258Z" fill="#666666"/>
<path id="Vector_39" d="M9.00781 13.8554V18.482L9.0611 18.4292V13.7637L9.00781 13.8554Z" fill="#F2F2F2"/>
<path id="Vector_40" d="M9.06047 11.9457L9.00891 11.9777L8.25662 11.5114L8.25391 11.4473L9.06047 11.9457Z" fill="#808080"/>
<path id="Vector_41" d="M6.71012 13.3457L6.66478 13.3737C6.56067 13.1836 6.53173 12.9584 6.5841 12.7463C6.63648 12.5342 6.76601 12.3519 6.94499 12.2385L8.27931 11.4473V11.5088L6.98232 12.286C6.81347 12.3894 6.69054 12.5586 6.64054 12.7567C6.5905 12.9548 6.61745 13.1656 6.71546 13.3429L6.71012 13.3457Z" fill="url(#paint9_linear_1_304)"/>
<path id="Vector_42" d="M9.8125 11.4746V10.5254L9.8435 10.5559V11.4441L9.8125 11.4746Z" fill="#4D4D4D"/>
<path id="Vector_43" d="M2.20724 16.0538L2.16202 16.0818C2.15572 16.0724 2.15234 16.0611 2.15234 16.0496C2.15234 16.0381 2.15572 16.0268 2.16202 16.0174L4.28994 13.625L4.30325 13.6894L2.20724 16.0538Z" fill="white"/>
<path id="Vector_44" d="M7.52718 11L6.58154 11.5546C6.37248 11.6787 6.19455 11.8518 6.06201 12.0598C5.92951 12.2679 5.84616 12.5051 5.81862 12.7524C5.79765 12.9269 5.73828 13.0943 5.64506 13.2415C5.55184 13.3887 5.42726 13.512 5.28078 13.6019C5.1343 13.6918 4.96985 13.746 4.80002 13.7602C4.63015 13.7744 4.45938 13.7484 4.30078 13.684V13.6203C4.5618 13.7303 4.85421 13.73 5.11506 13.6195C5.37587 13.5091 5.58417 13.2972 5.69502 13.0297C5.73002 12.9406 5.75438 12.8475 5.76756 12.7524C5.79815 12.4978 5.88532 12.254 6.02235 12.0399C6.15934 11.8258 6.34248 11.6474 6.55739 11.5185L7.42506 11H7.52718Z" fill="url(#paint10_linear_1_304)"/>
<path id="Vector_45" d="M3.98047 7.92969L8.25538 10.493V10.5541L3.99917 7.99903L3.98047 7.92969Z" fill="#EBEBEB"/>
<path id="Vector_46" d="M9.00891 10.0508L9.06047 10.081L8.25391 10.5533V10.4929L9.00891 10.0508Z" fill="#F2F2F2"/>
<path id="Vector_47" d="M4.00441 8.00075L3.6416 8.6915L3.57422 8.71139L3.98626 7.92969L4.00441 8.00075Z" fill="white"/>
<path id="Vector_48" d="M7.42504 11.0009L3.57422 8.70295L3.64365 8.68359L7.52652 11.0009H7.42504Z" fill="#808080"/>
<path id="Vector_49" d="M12.125 11.9457L12.1768 11.9777L12.9316 11.5114V11.4473L12.125 11.9457Z" fill="#1A1A1A"/>
<path id="Vector_50" d="M14.4816 13.3457L14.524 13.3737C14.6267 13.1826 14.6542 12.9566 14.6007 12.7444C14.5472 12.5322 14.4169 12.3505 14.2377 12.2385L12.9336 11.4473V11.5088L14.2112 12.286C14.3801 12.389 14.5033 12.5583 14.554 12.757C14.6047 12.9556 14.5786 13.1673 14.4816 13.3457Z" fill="url(#paint11_linear_1_304)"/>
<path id="Vector_51" d="M11.3736 11.4746V10.5254L11.3203 10.5559V11.4441L11.3736 11.4746Z" fill="#F2F2F2"/>
<path id="Vector_52" d="M18.9815 16.029L19.024 16.0539C19.0303 16.0446 19.0337 16.0335 19.0337 16.022C19.0337 16.0106 19.0303 15.9995 19.024 15.9901L16.8961 13.625L16.8828 13.686L18.9815 16.029Z" fill="#CCCCCC"/>
<path id="Vector_53" d="M13.6602 11L14.5992 11.5546C14.8073 11.6791 14.9846 11.8522 15.117 12.0601C15.2493 12.268 15.3331 12.5051 15.3616 12.7524C15.3825 12.9269 15.4416 13.0943 15.5344 13.2415C15.6273 13.3887 15.7514 13.512 15.8972 13.6019C16.0431 13.6918 16.2069 13.746 16.376 13.7602C16.5452 13.7744 16.7152 13.7484 16.8731 13.684L16.8865 13.6231C16.7563 13.6813 16.6162 13.7122 16.4744 13.7138C16.3326 13.7155 16.1919 13.6879 16.0605 13.6327C15.9291 13.5774 15.8095 13.4957 15.7088 13.3922C15.6081 13.2887 15.5283 13.1655 15.474 13.0297C15.4394 12.9406 15.4151 12.8475 15.4018 12.7524C15.3713 12.4978 15.2845 12.254 15.148 12.0399C15.0116 11.8258 14.8292 11.6474 14.6152 11.5185L13.7618 11H13.6602Z" fill="url(#paint12_linear_1_304)"/>
<path id="Vector_54" d="M17.2085 7.92969L12.9336 10.493V10.5541L17.1898 8.0018L17.2085 7.92969Z" fill="#F2F2F2"/>
<path id="Vector_55" d="M12.1766 10.0508L12.125 10.0811L12.9316 10.5533V10.4926L12.1766 10.0508Z" fill="#EBEBEB"/>
<path id="Vector_56" d="M17.1797 8.00361L17.5425 8.6915L17.6099 8.71139L17.1978 7.92969L17.1797 8.00361Z" fill="#B3B3B3"/>
<path id="Vector_57" d="M13.7616 11.0009L17.6124 8.70295L17.543 8.68359L13.6602 11.0009H13.7616Z" fill="#1A1A1A"/>
<path id="Vector_58" d="M12.125 11.9219L12.1782 11.9524V12.8406L12.125 12.8711V11.9219Z" fill="#4D4D4D"/>
<path id="Vector_59" d="M14.4759 13.3337L14.5183 13.3615C14.4121 13.5449 14.2425 13.6784 14.0447 13.7343C13.8469 13.7902 13.6361 13.7642 13.4562 13.6616L12.1523 12.8724L12.2028 12.8418L13.4827 13.6172C13.6508 13.7153 13.8489 13.7405 14.0345 13.6876C14.2202 13.6345 14.3787 13.5075 14.4759 13.3337Z" fill="url(#paint13_linear_1_304)"/>
<path id="Vector_60" d="M11.3735 11.4776L10.5938 11.9498V11.8891L11.3236 11.4473L11.3735 11.4776Z" fill="white"/>
<path id="Vector_61" d="M18.9945 16.0557L19.0372 16.0807C19.0322 16.0912 19.0239 16.0996 19.0137 16.1047C19.0036 16.1097 18.9921 16.1111 18.9812 16.1086L15.9453 15.3699L15.9907 15.3281L18.9945 16.0557Z" fill="url(#paint14_linear_1_304)"/>
<path id="Vector_62" d="M12.125 13.791L13.0635 14.3435C13.2706 14.4678 13.5028 14.5403 13.7416 14.5552C13.9805 14.57 14.2194 14.5269 14.4393 14.4291C14.5732 14.3699 14.7171 14.3387 14.8626 14.3372C15.0082 14.3358 15.1526 14.3641 15.2876 14.4205C15.4226 14.477 15.5455 14.5605 15.6493 14.6662C15.7531 14.772 15.8357 14.8979 15.8924 15.0368C15.9295 15.1251 15.9554 15.2179 15.9697 15.313L15.9244 15.3545C15.9044 15.1827 15.8456 15.0183 15.753 14.8743C15.6604 14.7304 15.5364 14.611 15.3912 14.5258C15.2494 14.4398 15.09 14.3896 14.9259 14.3796C14.7619 14.3694 14.5979 14.3997 14.4473 14.4678C14.2203 14.5673 13.9742 14.611 13.7281 14.5957C13.482 14.5804 13.2428 14.5063 13.0289 14.3794L12.1757 13.8822L12.125 13.791Z" fill="url(#paint15_linear_1_304)"/>
<path id="Vector_63" d="M11.3203 18.4814V13.347L11.3736 13.3164V18.4286L11.3203 18.4814Z" fill="#F2F2F2"/>
<path id="Vector_64" d="M10.5964 12.9059L10.5938 12.8418H10.5964L11.3735 13.3402L11.3236 13.3723L10.5964 12.9059Z" fill="#808080"/>
<path id="Vector_65" d="M11.3717 18.4258H12.1293L12.1807 18.4816H11.3203L11.3717 18.4258Z" fill="#666666"/>
<path id="Vector_66" d="M12.1782 13.8822V18.4814L12.125 18.4289V13.791L12.1782 13.8822Z" fill="#4D4D4D"/>
<path id="Vector_67" d="M10.7865 0.796915L11.2257 2.23257L11.2659 2.18249L10.8348 0.777436C10.8138 0.72905 10.78 0.687888 10.7373 0.658804C10.6946 0.62972 10.6448 0.613928 10.5938 0.613281V0.666147C10.6346 0.666614 10.6743 0.679167 10.7085 0.702328C10.7426 0.725494 10.7697 0.75831 10.7865 0.796915Z" fill="url(#paint16_linear_1_304)"/>
<path id="Vector_68" d="M19.2524 15.9032L18.292 14.8242H18.2305L19.2123 15.9252C19.2373 15.9598 19.252 16.0012 19.2543 16.0443C19.2567 16.0873 19.2467 16.1302 19.2257 16.1675L19.2711 16.1922C19.2933 16.1509 19.3052 16.1046 19.3059 16.0574C19.3037 16.0016 19.285 15.9478 19.2524 15.9032Z" fill="url(#paint17_linear_1_304)"/>
<path id="Vector_69" d="M19.2037 16.1785C19.1823 16.2162 19.1498 16.2464 19.1107 16.2647C19.0716 16.283 19.0278 16.2886 18.9853 16.2806L17.582 15.9688L17.606 16.0252L18.9774 16.3317H19.02C19.0664 16.3314 19.112 16.3189 19.1522 16.2953C19.1924 16.2717 19.2257 16.2379 19.249 16.1973L19.2037 16.1785Z" fill="url(#paint18_linear_1_304)"/>
<path id="Vector_70" d="M17.5849 15.9688C16.8079 17.1559 15.7646 18.1273 14.5456 18.7987C13.3266 19.47 11.9689 19.8209 10.5902 19.8209C9.21161 19.8209 7.85381 19.47 6.63483 18.7987C5.41589 18.1273 4.37254 17.1559 3.59555 15.9688L3.57422 16.0271C4.3564 17.2143 5.40398 18.1852 6.62657 18.8561C7.84915 19.5269 9.20996 19.8774 10.5916 19.8774C11.9731 19.8774 13.3339 19.5269 14.5565 18.8561C15.7791 18.1852 16.8267 17.2143 17.6089 16.0271L17.5849 15.9688Z" fill="url(#paint19_linear_1_304)"/>
<path id="Vector_71" d="M2.14052 16.3317H2.17575L3.58232 16.0248L3.604 15.9688L2.16762 16.281C2.12554 16.2859 2.08294 16.2786 2.04494 16.2601C2.00695 16.2417 1.9752 16.2128 1.95352 16.1769L1.91016 16.2009C1.93391 16.2404 1.96758 16.2731 2.00793 16.2961C2.04828 16.3189 2.09395 16.3312 2.14052 16.3317Z" fill="url(#paint20_linear_1_304)"/>
<path id="Vector_72" d="M1.93577 15.9134C1.90139 15.9621 1.88281 16.0214 1.88281 16.0823C1.88352 16.1305 1.89533 16.1779 1.91723 16.2202L1.9596 16.1948C1.93769 16.1583 1.92605 16.1158 1.92605 16.0724C1.92605 16.029 1.93769 15.9866 1.9596 15.95L2.93138 14.8242H2.87048L1.93577 15.9134Z" fill="url(#paint21_linear_1_304)"/>
<path id="Vector_73" d="M2.07033 11.0103C2.06783 12.3301 2.35005 13.6337 2.89619 14.825H2.95747C2.36021 13.5331 2.0751 12.109 2.12694 10.6764C2.17877 9.24382 2.56596 7.84611 3.25488 6.60461C3.9438 5.36315 4.9136 4.31552 6.08004 3.55273C7.24648 2.78993 8.57424 2.33507 9.94801 2.22763L9.91072 2.17773C7.77686 2.35665 5.78576 3.36445 4.33318 5.00085C2.88057 6.6373 2.07278 8.78252 2.07033 11.0103Z" fill="url(#paint22_linear_1_304)"/>
<path id="Vector_74" d="M10.3436 0.779499L9.92188 2.18275L9.95878 2.23257L10.4016 0.801644C10.417 0.761345 10.4436 0.726844 10.4779 0.702653C10.5122 0.678458 10.5527 0.665693 10.594 0.666023V0.613434C10.5412 0.611591 10.4892 0.626436 10.4445 0.656048C10.3998 0.685656 10.3647 0.728666 10.3436 0.779499Z" fill="url(#paint23_linear_1_304)"/>
<path id="Vector_75" fill-rule="evenodd" clip-rule="evenodd" d="M10.5927 21.5539C16.2056 21.5539 20.7558 16.829 20.7558 11.0005C20.7558 5.17679 16.2129 0.454798 10.6062 0.447266C8.59637 0.449989 6.63213 1.06981 4.96056 2.22895C3.28456 3.39116 1.97809 5.04334 1.20636 6.97657C0.692827 8.26299 0.431425 9.6354 0.429688 11.0145C0.436959 16.8366 4.98433 21.5539 10.5927 21.5539ZM17.6373 15.9939L19.0575 16.3216C19.0988 16.3263 19.1405 16.3183 19.1775 16.2988C19.2145 16.2792 19.2453 16.2489 19.266 16.2115C19.2867 16.1741 19.2964 16.1313 19.2941 16.0882C19.2917 16.0451 19.2773 16.0037 19.2527 15.9689L18.2712 14.8581C18.8718 13.5647 19.1592 12.1386 19.1083 10.7037C19.0574 9.26875 18.6698 7.86845 17.9792 6.62448C17.2886 5.38047 16.3159 4.33042 15.1456 3.56558C13.9753 2.80073 12.6428 2.34424 11.264 2.23576L10.8254 0.794404C10.8092 0.75545 10.7823 0.72231 10.748 0.6991C10.7138 0.675894 10.6737 0.663649 10.6328 0.663878C10.5913 0.663693 10.5506 0.676242 10.5159 0.699953C10.4812 0.723665 10.4539 0.757488 10.4376 0.797184L9.98827 2.23576C8.60793 2.34174 7.27336 2.79628 6.10073 3.55986C4.92806 4.32344 3.95281 5.37294 3.25976 6.61709C2.56672 7.86123 2.17687 9.26232 2.12411 10.6986C2.07136 12.1348 2.3573 13.5627 2.95707 14.8581L1.97554 15.9689C1.9534 16.0051 1.94165 16.0469 1.94165 16.0898C1.94165 16.1325 1.9534 16.1745 1.97554 16.2105C1.99641 16.2484 2.02766 16.2788 2.06529 16.2981C2.10292 16.3174 2.14523 16.3246 2.18682 16.3189L3.60429 15.9939C4.38331 17.1807 5.42976 18.152 6.65259 18.8231C7.87543 19.4943 9.23764 19.8452 10.6208 19.8452C12.004 19.8452 13.3662 19.4943 14.589 18.8231C15.8118 18.152 16.8583 17.1807 17.6373 15.9939Z" fill="url(#paint24_radial_1_304)"/>
<path id="Vector_76" d="M19.1155 11.0028C19.1117 8.77649 18.3008 6.63312 16.8439 4.99821C15.387 3.36333 13.3905 2.35653 11.251 2.17773L11.2109 2.22208C12.59 2.32894 13.923 2.7837 15.0939 3.54681C16.2649 4.30992 17.2384 5.35827 17.9296 6.60056C18.6208 7.8429 19.0089 9.24162 19.06 10.675C19.1111 12.1084 18.8238 13.533 18.223 14.825H18.2844C18.8343 13.6317 19.1184 12.3254 19.1155 11.0028Z" fill="url(#paint25_linear_1_304)"/>
</g>
<defs>
<radialGradient id="paint0_radial_1_304" cx="0" cy="0" r="1" gradientUnits="userSpaceOnUse" gradientTransform="translate(8.48275 6.9949) scale(14.4384 14.9928)">
<stop stop-color="#F88D9D"/>
<stop offset="0.14" stop-color="#F98494"/>
<stop offset="0.3" stop-color="#F77588"/>
<stop offset="0.48" stop-color="#F45F7A"/>
<stop offset="0.66" stop-color="#F23E58"/>
<stop offset="0.72" stop-color="#EF3550"/>
<stop offset="1" stop-color="#E31230"/>
</radialGradient>
<radialGradient id="paint1_radial_1_304" cx="0" cy="0" r="1" gradientUnits="userSpaceOnUse" gradientTransform="translate(-2.01059 -2.12681) scale(26.9116 27.9397)">
<stop offset="0.21" stop-color="#9AA2B8"/>
<stop offset="0.35" stop-color="#CED2DE"/>
<stop offset="0.46" stop-color="#F4F4FA"/>
<stop offset="0.54" stop-color="#F4F4FA"/>
<stop offset="0.55" stop-color="#F4F4FA"/>
<stop offset="0.63" stop-color="#B6BED0"/>
<stop offset="0.74" stop-color="#737B95"/>
<stop offset="0.77" stop-color="#7A829B"/>
<stop offset="0.81" stop-color="#8E94AB"/>
<stop offset="0.85" stop-color="#AFB3C5"/>
<stop offset="0.88" stop-color="#CACCDB"/>
<stop offset="0.92" stop-color="#E6E7F0"/>
<stop offset="0.94" stop-color="#F4F4FA"/>
</radialGradient>
<linearGradient id="paint2_linear_1_304" x1="12.5171" y1="7.51091" x2="10.9036" y2="7.51091" gradientUnits="userSpaceOnUse">
<stop stop-color="white"/>
<stop offset="0.18" stop-color="#CDCDCD"/>
<stop offset="0.37" stop-color="#9F9F9F"/>
<stop offset="0.55" stop-color="#7C7C7C"/>
<stop offset="0.72" stop-color="#626262"/>
<stop offset="0.88" stop-color="#525252"/>
<stop offset="1" stop-color="#4D4D4D"/>
</linearGradient>
<linearGradient id="paint3_linear_1_304" x1="9.55892" y1="4.7356" x2="9.55892" y2="8.62477" gradientUnits="userSpaceOnUse">
<stop stop-color="#BDBFC1"/>
<stop offset="0.11" stop-color="#C6C7C9"/>
<stop offset="0.28" stop-color="#DDDEDF"/>
<stop offset="0.48" stop-color="white"/>
<stop offset="1" stop-color="#E8E7E8"/>
</linearGradient>
<linearGradient id="paint4_linear_1_304" x1="12.5191" y1="7.51091" x2="10.9056" y2="7.51091" gradientUnits="userSpaceOnUse">
<stop stop-color="#F2F2F2"/>
<stop offset="0.05" stop-color="#E6E6E6"/>
<stop offset="0.27" stop-color="#B8B8B8"/>
<stop offset="0.48" stop-color="#959595"/>
<stop offset="0.68" stop-color="#7B7B7B"/>
<stop offset="0.86" stop-color="#6B6B6B"/>
<stop offset="1" stop-color="#666666"/>
</linearGradient>
<linearGradient id="paint5_linear_1_304" x1="11.6288" y1="4.62816" x2="11.6288" y2="9.12346" gradientUnits="userSpaceOnUse">
<stop stop-color="#4D4D4D"/>
<stop offset="0.07" stop-color="#525252"/>
<stop offset="0.15" stop-color="#616161"/>
<stop offset="0.24" stop-color="#7A7A7A"/>
<stop offset="0.34" stop-color="#9C9C9C"/>
<stop offset="0.44" stop-color="#C8C8C8"/>
<stop offset="0.54" stop-color="white"/>
<stop offset="0.63" stop-color="#CBCBCB"/>
<stop offset="0.71" stop-color="#9E9E9E"/>
<stop offset="0.8" stop-color="#7B7B7B"/>
<stop offset="0.87" stop-color="#616161"/>
<stop offset="0.94" stop-color="#525252"/>
<stop offset="1" stop-color="#4D4D4D"/>
</linearGradient>
<linearGradient id="paint6_linear_1_304" x1="8.36102" y1="14.055" x2="8.21572" y2="13.7981" gradientUnits="userSpaceOnUse">
<stop stop-color="white"/>
<stop offset="1" stop-color="#666666"/>
</linearGradient>
<linearGradient id="paint7_linear_1_304" x1="3.98234" y1="16.0091" x2="4.04858" y2="16.0753" gradientUnits="userSpaceOnUse">
<stop stop-color="white"/>
<stop offset="0.08" stop-color="#E5E5E5"/>
<stop offset="0.25" stop-color="#AFAFAF"/>
<stop offset="0.43" stop-color="#838383"/>
<stop offset="0.59" stop-color="#606060"/>
<stop offset="0.74" stop-color="#474747"/>
<stop offset="0.88" stop-color="#383838"/>
<stop offset="1" stop-color="#333333"/>
</linearGradient>
<linearGradient id="paint8_linear_1_304" x1="9.56925" y1="13.1643" x2="6.04819" y2="14.7191" gradientUnits="userSpaceOnUse">
<stop stop-color="#1A1A1A"/>
<stop offset="0.12" stop-color="#1E1E1E"/>
<stop offset="0.23" stop-color="#292929"/>
<stop offset="0.33" stop-color="#3C3C3C"/>
<stop offset="0.43" stop-color="#565656"/>
<stop offset="0.53" stop-color="#787878"/>
<stop offset="0.63" stop-color="#9C9C9C"/>
<stop offset="0.76" stop-color="#646464"/>
<stop offset="0.86" stop-color="#3C3C3C"/>
<stop offset="0.95" stop-color="#232323"/>
<stop offset="1" stop-color="#1A1A1A"/>
</linearGradient>
<linearGradient id="paint9_linear_1_304" x1="8.08436" y1="13.8822" x2="7.79802" y2="13.258" gradientUnits="userSpaceOnUse">
<stop stop-color="#666666"/>
<stop offset="1" stop-color="#333333"/>
</linearGradient>
<linearGradient id="paint10_linear_1_304" x1="8.2893" y1="11.247" x2="4.66307" y2="13.1036" gradientUnits="userSpaceOnUse">
<stop stop-color="#E0E0E0"/>
<stop offset="0.15" stop-color="#D6D6D6"/>
<stop offset="0.41" stop-color="#BCBCBC"/>
<stop offset="0.59" stop-color="#A6A6A6"/>
<stop offset="0.62" stop-color="#BFBFBF"/>
<stop offset="0.68" stop-color="#DBDBDB"/>
<stop offset="0.73" stop-color="#EFEFEF"/>
<stop offset="0.78" stop-color="#FBFBFB"/>
<stop offset="0.83" stop-color="white"/>
<stop offset="1" stop-color="#ADADAD"/>
</linearGradient>
<linearGradient id="paint11_linear_1_304" x1="15.8676" y1="13.8433" x2="15.2223" y2="13.4386" gradientUnits="userSpaceOnUse">
<stop stop-color="#FEFEFE"/>
<stop offset="0.25" stop-color="#C8C8C8"/>
<stop offset="0.49" stop-color="#9E9E9E"/>
<stop offset="0.7" stop-color="#7F7F7F"/>
<stop offset="0.87" stop-color="#6D6D6D"/>
<stop offset="1" stop-color="#666666"/>
</linearGradient>
<linearGradient id="paint12_linear_1_304" x1="14.8118" y1="12.383" x2="18.0781" y2="12.383" gradientUnits="userSpaceOnUse">
<stop stop-color="#E0E0E0"/>
<stop offset="0.15" stop-color="#D6D6D6"/>
<stop offset="0.41" stop-color="#BCBCBC"/>
<stop offset="0.59" stop-color="#A6A6A6"/>
<stop offset="0.65" stop-color="#BFBFBF"/>
<stop offset="0.74" stop-color="#DBDBDB"/>
<stop offset="0.83" stop-color="#EFEFEF"/>
<stop offset="0.91" stop-color="#FBFBFB"/>
<stop offset="1" stop-color="white"/>
</linearGradient>
<linearGradient id="paint13_linear_1_304" x1="15.4111" y1="14.5483" x2="14.7666" y2="14.1425" gradientUnits="userSpaceOnUse">
<stop stop-color="white"/>
<stop offset="0.12" stop-color="#F8F8F8"/>
<stop offset="0.31" stop-color="#E5E5E5"/>
<stop offset="0.52" stop-color="#C5C5C5"/>
<stop offset="0.76" stop-color="#999999"/>
<stop offset="1" stop-color="#666666"/>
</linearGradient>
<linearGradient id="paint14_linear_1_304" x1="19.3368" y1="14.8271" x2="19.2595" y2="14.8615" gradientUnits="userSpaceOnUse">
<stop stop-color="#CCCCCC"/>
<stop offset="0.12" stop-color="#BABABA"/>
<stop offset="0.32" stop-color="#A1A1A1"/>
<stop offset="0.53" stop-color="#8E8E8E"/>
<stop offset="0.75" stop-color="#848484"/>
<stop offset="1" stop-color="#808080"/>
</linearGradient>
<linearGradient id="paint15_linear_1_304" x1="13.2564" y1="14.5759" x2="17.1464" y2="14.5759" gradientUnits="userSpaceOnUse">
<stop stop-color="#999999"/>
<stop offset="0.09" stop-color="#949494"/>
<stop offset="0.19" stop-color="#868686"/>
<stop offset="0.3" stop-color="#6F6F6F"/>
<stop offset="0.41" stop-color="#4F4F4F"/>
<stop offset="0.52" stop-color="#262626"/>
<stop offset="0.55" stop-color="#1A1A1A"/>
<stop offset="0.6" stop-color="#202020"/>
<stop offset="0.66" stop-color="#313131"/>
<stop offset="0.73" stop-color="#4E4E4E"/>
<stop offset="0.8" stop-color="#767676"/>
<stop offset="0.88" stop-color="#A9A9A9"/>
<stop offset="0.97" stop-color="#E6E6E6"/>
<stop offset="1" stop-color="white"/>
</linearGradient>
<linearGradient id="paint16_linear_1_304" x1="12.3567" y1="1.42337" x2="11.0446" y2="1.42337" gradientUnits="userSpaceOnUse">
<stop stop-color="#CCCCCC"/>
<stop offset="1" stop-color="#3D3D3D"/>
</linearGradient>
<linearGradient id="paint17_linear_1_304" x1="18.361" y1="16.3412" x2="18.6743" y2="15.7089" gradientUnits="userSpaceOnUse">
<stop stop-color="white"/>
<stop offset="0.14" stop-color="#FAFAFA"/>
<stop offset="0.31" stop-color="#ECECEC"/>
<stop offset="0.48" stop-color="#D5D5D5"/>
<stop offset="0.67" stop-color="#B4B4B4"/>
<stop offset="0.86" stop-color="#8B8B8B"/>
<stop offset="1" stop-color="#666666"/>
</linearGradient>
<linearGradient id="paint18_linear_1_304" x1="2259.12" y1="-414.104" x2="2259.44" y2="-411.086" gradientUnits="userSpaceOnUse">
<stop stop-color="white"/>
<stop offset="0.14" stop-color="#FAFAFA"/>
<stop offset="0.31" stop-color="#ECECEC"/>
<stop offset="0.48" stop-color="#D5D5D5"/>
<stop offset="0.67" stop-color="#B4B4B4"/>
<stop offset="0.86" stop-color="#8B8B8B"/>
<stop offset="1" stop-color="#666666"/>
</linearGradient>
<linearGradient id="paint19_linear_1_304" x1="18370.8" y1="-4798.46" x2="18100.5" y2="-3828.15" gradientUnits="userSpaceOnUse">
<stop stop-color="white"/>
<stop offset="1" stop-color="#231A16"/>
</linearGradient>
<linearGradient id="paint20_linear_1_304" x1="3.31455" y1="17.251" x2="2.95069" y2="16.4655" gradientUnits="userSpaceOnUse">
<stop stop-color="#F2F2F2"/>
<stop offset="1" stop-color="#1A1A1A"/>
</linearGradient>
<linearGradient id="paint21_linear_1_304" x1="1237.83" y1="-1654.02" x2="1231.23" y2="-1643.49" gradientUnits="userSpaceOnUse">
<stop stop-color="#F2F2F2"/>
<stop offset="1" stop-color="#1A1A1A"/>
</linearGradient>
<linearGradient id="paint22_linear_1_304" x1="10448.2" y1="-15356.4" x2="8930.43" y2="-14411" gradientUnits="userSpaceOnUse">
<stop stop-color="white"/>
<stop offset="1" stop-color="#231A16"/>
</linearGradient>
<linearGradient id="paint23_linear_1_304" x1="869.598" y1="-1661.99" x2="859.916" y2="-1661.99" gradientUnits="userSpaceOnUse">
<stop stop-color="#CCCCCC"/>
<stop offset="1" stop-color="#3D3D3D"/>
</linearGradient>
<radialGradient id="paint24_radial_1_304" cx="0" cy="0" r="1" gradientUnits="userSpaceOnUse" gradientTransform="translate(-4.58173 -3.176) scale(32.3968 33.5276)">
<stop offset="0.21" stop-color="#9AA2B8"/>
<stop offset="0.35" stop-color="#CED2DE"/>
<stop offset="0.46" stop-color="#F4F4FA"/>
<stop offset="0.54" stop-color="#F4F4FA"/>
<stop offset="0.55" stop-color="#F4F4FA"/>
<stop offset="0.63" stop-color="#B6BED0"/>
<stop offset="0.74" stop-color="#737B95"/>
<stop offset="0.77" stop-color="#7A829B"/>
<stop offset="0.81" stop-color="#8E94AB"/>
<stop offset="0.85" stop-color="#AFB3C5"/>
<stop offset="0.88" stop-color="#CACCDB"/>
<stop offset="0.92" stop-color="#E6E7F0"/>
<stop offset="0.94" stop-color="#F4F4FA"/>
</radialGradient>
<linearGradient id="paint25_linear_1_304" x1="21.5061" y1="14.0268" x2="8.90929" y2="1.8828" gradientUnits="userSpaceOnUse">
<stop stop-color="white"/>
<stop offset="1" stop-color="#231A16"/>
</linearGradient>
<clipPath id="clip0_1_304">
<rect width="100" height="22" fill="white"/>
</clipPath>
</defs>
</svg>
