<svg width="100" height="14" viewBox="0 0 100 14" fill="none" xmlns="http://www.w3.org/2000/svg">
<g id="logo (1) 1" clip-path="url(#clip0_1_386)">
<g id="Layer_1_1_">
<g id="Group">
<path id="Vector" d="M32.2301 2.31567H29.2282V2.34974C29.325 2.52005 29.3896 2.7585 29.3896 2.99694C29.3896 3.37164 29.1636 4.0529 29.0991 4.35947L27.1946 10.1502C26.9364 10.8996 26.9041 11.104 26.4522 11.8193V11.8534H28.9377V11.8193C28.8086 11.5809 28.744 11.3765 28.744 11.1381C28.744 10.7634 28.9054 10.2524 29.0022 9.97991L29.1313 9.57115H31.8428C31.8428 9.57115 32.0042 10.0821 32.1333 10.3887C32.2301 10.6612 32.2624 10.9337 32.2624 11.104C32.2624 11.3084 32.2301 11.4787 32.1333 11.8193V11.8534H35.7486V11.8193C35.3612 11.3084 35.1675 10.7293 34.8447 9.77553L32.2301 2.31567ZM29.6155 8.00424L30.4548 5.3473L31.3263 8.00424H29.6155ZM24.9028 9.74147C24.9028 10.593 24.9673 11.3765 25.2256 11.8193V11.8534H21.6749V11.8193C22.0299 11.1721 21.9654 10.5249 21.9654 9.77553V8.20862V7.83392L21.4812 6.84609L19.7704 3.47382C19.5445 2.99694 19.3508 2.69037 18.9957 2.34974V2.31567H22.0945V2.34974L23.9344 6.30108C23.9344 6.30108 24.354 5.41543 24.4509 5.21105C24.6446 4.80229 24.8705 4.32541 24.9673 4.12103C25.1287 3.81446 25.2901 3.37164 25.2901 3.031C25.2901 2.69037 25.1933 2.52005 25.0965 2.3838V2.31567H27.5497V2.34974L25.0642 7.52735L24.8705 7.90205L24.9028 9.74147ZM42.7531 11.8534H36.3941V11.8193C36.6524 11.2062 36.6847 10.6952 36.6847 9.77553V4.39353C36.6847 3.26945 36.5878 2.82662 36.3941 2.3838V2.34974H39.848V2.3838C39.6221 3.031 39.5898 3.4057 39.5898 4.4276V9.91178C39.9771 9.97991 40.429 10.048 40.9132 10.048C41.9462 10.048 42.4949 9.94584 42.8822 9.77553H42.9791L42.7531 11.8534ZM14.7994 2.07723C11.9911 2.07723 10.0544 3.91665 10.0544 6.50546C10.0544 10.2865 13.8633 10.8315 15.1868 9.60521L14.9608 9.12833C13.7988 9.36677 12.7658 8.44706 12.7658 6.3692C12.7658 4.7001 13.6051 3.64414 14.7672 3.64414C16.1229 3.64414 16.9621 5.0748 16.9621 7.15266C16.9621 9.50302 15.671 11.2743 13.2823 11.2743C10.5386 11.2743 8.47273 8.99207 7.18156 6.70984C8.60184 6.13076 9.4411 5.00667 9.4411 3.47382C9.4411 1.49816 8.02082 0.101562 5.47077 0.101562H0.628906V0.135626C0.822581 0.578448 0.919418 1.39597 0.919418 2.52005V9.77553C0.919418 10.6952 0.887139 11.2062 0.628906 11.8193V11.8534H4.21189V11.8193C3.98593 11.2402 3.92137 10.4568 3.92137 9.77553C3.92137 8.65144 3.92137 7.7658 3.92137 7.7658C3.95365 7.7658 4.30872 7.7658 4.37328 7.7658C6.85877 11.6149 9.69933 13.2159 12.7336 13.2159C17.1235 13.2159 19.7059 10.2865 19.7059 7.05047C19.7059 4.29134 17.7368 2.07723 14.7994 2.07723ZM3.95365 6.23295V1.90692H4.95431C6.11635 1.90692 6.60054 2.62224 6.60054 3.78039C6.60054 5.17699 5.82584 6.26701 4.56696 6.26701C4.37328 6.23295 4.01821 6.23295 3.95365 6.23295ZM64.1542 2.34974C63.9605 2.79256 63.8637 3.26945 63.8637 4.35947V10.2865C63.8959 10.8996 63.9282 11.3084 64.1542 11.7853V11.8193H63.8637H63.2826H62.056C61.6041 11.6149 61.1199 11.0359 60.4744 10.3205C59.9579 9.74146 57.537 6.77796 57.537 6.77796H57.5047C57.5047 6.77796 57.5047 9.57115 57.5047 9.60521C56.7945 9.67334 55.9553 9.87772 55.3097 10.048V9.4349V4.32541C55.3097 3.20132 55.2129 2.7585 55.0192 2.31567V2.28161H56.8268H57.5692L61.6687 7.52735V4.39353C61.6687 3.26945 61.5718 2.82662 61.3782 2.3838V2.34974H63.2826H64.1542ZM59.9256 11.8534C56.3426 11.8875 55.5034 13.9312 50.952 13.9312C48.757 13.9312 46.8203 13.3181 46.8203 13.3181V13.284C47.0785 12.6709 47.1108 12.194 47.1108 11.2743V2.52005C47.1108 1.39597 47.014 0.578448 46.8203 0.135626V0.101562H54.1477L54.3736 2.24755C53.8249 2.0091 53.147 1.94098 52.1786 1.94098H50.2419V5.65387H51.178C52.6305 5.65387 53.4698 5.55168 53.6957 5.48356H53.7603V7.73173H53.728C53.4375 7.62954 52.4369 7.52735 51.2425 7.52735H50.2742V11.2402C50.2742 11.2402 51.4039 11.5128 52.4369 11.5128C55.1483 11.5128 56.3104 10.4909 58.9895 10.4909C59.0864 10.4909 59.1509 10.4909 59.2155 10.4909C59.7319 11.1381 60.1838 11.649 60.3775 11.8534C60.1838 11.8534 60.1838 11.8534 59.9256 11.8534ZM75.5164 4.39353V9.80959C75.5164 10.7293 75.5487 11.2402 75.8069 11.8534V11.8875H72.3208V11.8534C72.579 11.2402 72.6113 10.7293 72.6113 9.80959V4.39353C72.6113 3.26945 72.5145 2.82662 72.3208 2.3838V2.34974H75.8069V2.3838C75.6133 2.82662 75.5164 3.26945 75.5164 4.39353ZM68.5118 6.47139H68.7701C70.0612 6.47139 70.4809 6.3692 70.6745 6.33514H70.7391V8.31081H70.6745C70.4163 8.20862 69.8676 8.10643 68.8024 8.10643H68.5118V9.26458V9.74147C68.5118 10.6952 68.5441 11.3424 68.8346 11.8193V11.8534H65.3162V11.8193C65.5745 11.2062 65.6067 10.6952 65.6067 9.77553V4.39353C65.6067 3.26945 65.5099 2.82662 65.3162 2.3838V2.34974H71.3201L71.5461 4.29134H71.5138C71.0942 4.08696 70.5454 3.98477 69.6739 3.98477H68.5118V5.55168V6.47139ZM83.4248 9.87772L83.1988 11.8534H79.0348H77.0013V11.8193C77.2595 11.2062 77.2918 10.6952 77.2918 9.77553V4.39353C77.2918 3.26945 77.1949 2.82662 77.0013 2.3838V2.34974H83.0052L83.2311 4.29134H83.1988C82.7792 4.08696 82.2305 3.98477 81.3589 3.98477H80.1969V6.16482H80.4228C81.714 6.16482 82.1336 6.06263 82.3273 6.02857H82.3919V8.00424H82.3273C82.0691 7.90205 81.5203 7.79986 80.4551 7.79986H80.1646V10.048C80.5842 10.1162 80.8747 10.1502 81.3589 10.1502C82.4564 10.1502 82.8438 10.0821 83.2957 9.87772H83.4248ZM99.4029 7.3911C99.4029 10.6612 97.1434 13.2159 93.3345 13.2159C90.3971 13.2159 89.461 11.8534 85.8134 11.8534H84.2963V11.8193C84.5546 11.2062 84.5868 10.6952 84.5868 9.77553V4.35947C84.5868 3.23538 84.49 2.79256 84.2963 2.34974V2.31567H87.7825V2.34974C87.5888 2.79256 87.492 3.50789 87.492 4.39353V10.1843C89.6547 10.1843 90.623 10.8656 92.5275 10.8656C95.1744 10.8656 96.4655 9.33271 96.4655 7.15266C96.4655 5.27918 95.5617 3.88258 93.9801 3.88258C93.6896 3.88258 93.2699 3.88258 92.9471 3.88258V9.77553C91.9788 9.80959 90.849 9.67334 90.042 9.36677V4.35947C90.042 3.23538 89.9452 2.79256 89.7515 2.34974V2.31567H93.8509C97.2402 2.31567 99.4029 4.52979 99.4029 7.3911Z" fill="#DA291C"/>
</g>
</g>
</g>
<defs>
<clipPath id="clip0_1_386">
<rect width="99" height="14" fill="white" transform="translate(0.5)"/>
</clipPath>
</defs>
</svg>
