<svg width="90" height="18" viewBox="0 0 90 18" fill="none" xmlns="http://www.w3.org/2000/svg">
<g id="TVSLogo-hr 1" clip-path="url(#clip0_1_299)">
<path id="Vector" d="M3.94694 14.5645H2.2143L1.53886 17.333H9.93778L10.5839 14.5645H8.55756L10.5839 5.34736H11.9641L11.8467 6.87812H14.7539L15.9286 2.02526H1.95L0.804688 6.87812H3.82948L4.44618 5.31478H5.94389L3.94694 14.5645ZM25.8546 2.02526H32.3447L23.6815 17.333H18.2486L17.485 4.79367H16.3691L17.0152 2.02526H24.2101L23.564 4.79367H22.3306L22.3012 12.6429L26.4419 4.79367H25.0617L25.8546 2.02526ZM42.5057 6.55243C42.5057 5.02166 42.9461 3.65374 43.5041 2.25325C41.0667 1.76471 38.4236 1.56929 36.0156 2.25325C34.6647 2.64408 33.2551 3.5886 32.4915 4.92395C31.6105 6.42215 31.8161 8.34378 32.9027 9.61398C33.4607 10.2328 34.1361 10.6562 34.8409 11.0145C35.3989 11.3076 36.368 11.7636 36.5148 12.4801C36.926 14.304 34.2829 14.4669 33.2551 14.1086V12.6755H30.4946L29.4374 16.9421C31.9042 17.6261 34.4885 17.854 36.9846 17.2353C38.4824 16.8444 39.8332 15.9976 40.8317 14.6622C41.654 13.5223 42.1239 11.4053 41.2429 10.1677C40.7436 9.48372 40.1856 8.96258 39.5102 8.53918C38.8642 8.11578 38.1593 7.85518 37.572 7.36665C36.8672 6.78038 36.8672 5.86847 37.6307 5.34736C38.2181 4.92395 39.1872 5.11937 39.8332 5.24964L39.9507 6.51986H42.5057V6.55243Z" fill="#183883"/>
<path id="Vector_2" d="M80.3848 2.31855C79.2392 1.83 78.1525 1.86257 76.9781 2.18827C75.8325 2.51396 75.0105 3.23049 74.1 4.01216C73.1896 4.79383 72.2208 5.5755 71.1636 6.09661C70.077 6.61773 68.8436 7.1714 67.6686 6.65029C68.5207 6.68287 69.3133 6.48745 70.0475 5.96633C70.6056 5.5755 71.5744 4.76126 71.78 4.01216H70.8112C71.516 3.16535 72.397 2.51396 73.3658 2.12313L72.8961 1.50431C74.1884 0.52722 75.598 0.071246 77.1543 0.00610678C77.8885 -0.0264627 78.6228 0.071246 79.2981 0.299233C80.0324 0.527219 80.5904 0.918053 81.119 1.50431L80.3848 2.31855ZM61.7952 5.73835C61.3845 5.73835 61.0321 5.77092 60.6207 5.90119C60.2389 6.03147 59.8865 6.19432 59.5048 6.35717C58.8 6.68287 58.1245 7.10627 57.4491 7.49713C57.1554 7.65993 56.803 7.8554 56.48 7.92053C56.1276 7.98567 55.6577 7.98567 55.3347 7.8228C54.9823 7.6274 54.6886 7.43193 54.3949 7.13887C54.1012 6.84573 53.8076 6.55259 53.5139 6.3246C53.1909 6.09661 52.8679 5.93377 52.5448 5.70578C52.6917 5.70578 53.4552 5.67321 53.2496 5.31495C53.0734 5.02182 52.6623 4.89154 52.3392 4.8264C51.6051 4.66355 50.8709 4.66355 50.1367 4.66355C50.7535 4.0773 51.4289 3.78417 52.2511 3.78417C53.0147 3.78417 53.6314 4.17501 54.2774 4.59841C54.6005 4.8264 54.9823 5.21723 55.3053 5.44522C55.6283 5.67321 55.9807 5.80349 56.3332 5.93377C57.0086 6.19432 57.8602 6.06405 58.5357 5.80349C59.0936 5.5755 59.5929 5.31495 60.2096 5.31495C60.7675 5.21723 61.2961 5.38008 61.7952 5.73835Z" fill="#E62D38"/>
<path id="Vector_3" d="M56.0403 12.2829C57.2444 12.2178 58.2429 10.9151 58.9183 9.93792C59.6525 8.89572 60.1517 7.33239 61.297 6.74612C63.0001 5.89932 64.7915 6.61585 66.3484 7.52778C67.8163 8.34205 69.8723 8.21178 71.3402 7.49525C72.9554 6.71358 74.1888 5.3782 75.5695 4.23827C76.8612 3.16348 78.5354 2.41438 80.5325 3.00063L81.4134 1.82812L81.5896 3.74973L84.7022 7.23465L84.0858 8.04892H82.0888V7.49525C81.5012 7.03925 80.8849 6.71358 80.1506 6.81125C79.3869 6.90899 78.5648 7.29978 78.6821 8.30945C78.7705 8.99345 79.6515 9.61225 80.0917 9.97052C80.7087 10.4265 81.3545 10.8499 82.0004 11.3059C83.3221 12.2178 84.585 13.2275 85.8183 14.3023C86.9639 15.3119 88.1384 16.3541 89.0193 17.6244L86.3175 17.0381C86.8166 16.6473 86.2297 16.2239 85.9067 15.9307C85.4954 15.5724 85.0841 15.2793 84.6144 14.9863C83.704 14.4325 82.7346 14.1394 81.7364 13.8789C79.8277 13.3577 77.3609 13.0321 75.6868 14.3674C75.6278 14.4 75.5695 14.4651 75.5106 14.4977L74.5707 13.6183C71.5459 14.7583 68.1687 14.4651 65.379 12.7715C64.2334 13.6509 62.9123 13.8463 61.5905 14.0091C60.3279 14.172 59.0064 14.0743 57.7142 13.944C54.6308 16.7775 50.4313 18.4386 46.4961 16.9404L49.1392 16.1913V16.8427C51.9877 16.8427 54.3665 14.628 56.0403 12.2829Z" fill="#E62D38"/>
</g>
<defs>
<clipPath id="clip0_1_299">
<rect width="89" height="18" fill="white" transform="translate(0.5)"/>
</clipPath>
</defs>
</svg>
